<?xml version="1.0" encoding="UTF-8"?>
<svg version="1.1" xmlns="http://www.w3.org/2000/svg" width="390" height="76">
<path d="M0 0 C2.85342966 1.28657054 4.16303471 1.84698098 7.23046875 1.09375 C8.89417847 0.3531479 10.54653338 -0.41340982 12.1875 -1.203125 C20.80687565 -4.84583733 30.28207249 -3.5571301 38.8125 -0.3125 C47.60500712 4.15803741 54.54105499 11.29377932 57.8125 20.6875 C60.69657489 32.14946772 59.97791999 41.98650163 54.2734375 52.40625 C48.9952326 60.64815284 40.73861456 65.94283381 31.23828125 68.3359375 C22.47373445 69.60616167 14.0565251 68.62927018 6.25 64.25 C2.60791589 63.40951905 0.2449641 64.99475826 -3.00390625 66.64453125 C-10.81557183 70.37568458 -19.83383426 69.49768252 -27.8125 66.75 C-37.47759329 62.62437265 -44.06768172 56.44723494 -48.34765625 46.8515625 C-51.56753939 38.55474734 -51.74059738 26.68351528 -48.75 18.1875 C-43.68741525 7.95649249 -35.71179243 1.69534056 -25.1875 -2.3125 C-17.09480378 -4.51959897 -7.51430779 -3.67418835 0 0 Z " fill="#FC7917" transform="translate(52.1875,4.3125)"/>
<path d="M0 0 C-0.50318279 4.34566953 -1.83277934 6.28820468 -4.875 9.375 C-12.17766495 17.23940841 -13.32950728 25.1977041 -13.2109375 35.71484375 C-12.59122534 45.36628685 -7.93148629 52.2618798 -1.125 58.875 C-0.42375 59.57625 0.2775 60.2775 1 61 C1 61.66 1 62.32 1 63 C-0.41478135 63.64995297 -1.83191487 64.29478722 -3.25 64.9375 C-4.03890625 65.29714844 -4.8278125 65.65679687 -5.640625 66.02734375 C-13.78818505 69.38618887 -22.37893607 68.90226876 -30.625 66.0625 C-40.29009329 61.93687265 -46.88018172 55.75973494 -51.16015625 46.1640625 C-54.38003939 37.86724734 -54.55309738 25.99601528 -51.5625 17.5 C-46.49991525 7.26899249 -38.52429243 1.00784056 -28 -3 C-18.88396089 -5.48619248 -8.50640782 -3.83622313 0 0 Z " fill="#69DAFD" transform="translate(55,5)"/>
<path d="M0 0 C6.82758762 2.1529501 10.7340462 7.96304477 14.14453125 14.0390625 C18.09878266 22.88256073 18.09937015 32.44136081 15.0390625 41.55078125 C11.89489781 48.9620266 7.28710278 54.09605983 1 59 C-6.54284355 52.83436103 -13.13141006 45.92348247 -15 36 C-15.78125587 24.91217628 -14.75862694 15.57112301 -7.62890625 6.76171875 C-5.27051224 4.21103362 -2.76241215 2.10469497 0 0 Z " fill="#5C2D05" transform="translate(56,8)"/>
<path d="M0 0 C3.40107916 0.03773736 4.53385333 0.37092026 6.96142578 2.81640625 C8.96125276 5.72186399 10.73880967 8.67850682 12.47265625 11.75 C13.09978516 12.79929687 13.72691406 13.84859375 14.37304688 14.9296875 C15.91577947 17.52053613 17.4256297 20.12550681 18.91015625 22.75 C18.9352124 22.11908447 18.96026855 21.48816895 18.98608398 20.83813477 C19.10169762 17.99603175 19.22457941 15.15428917 19.34765625 12.3125 C19.38697266 11.31927734 19.42628906 10.32605469 19.46679688 9.30273438 C19.50869141 8.35849609 19.55058594 7.41425781 19.59375 6.44140625 C19.63040771 5.56685791 19.66706543 4.69230957 19.70483398 3.79125977 C19.91015625 1.75 19.91015625 1.75 20.91015625 0.75 C23.22015625 0.75 25.53015625 0.75 27.91015625 0.75 C27.91015625 13.62 27.91015625 26.49 27.91015625 39.75 C18.91015625 39.75 18.91015625 39.75 16.60327148 37.73046875 C15.79418335 36.34794922 15.79418335 36.34794922 14.96875 34.9375 C14.36611328 33.94492187 13.76347656 32.95234375 13.14257812 31.9296875 C12.55025391 30.88039063 11.95792969 29.83109375 11.34765625 28.75 C10.72052734 27.70070313 10.09339844 26.65140625 9.44726562 25.5703125 C7.90538195 22.98088953 6.40377884 20.36755766 4.91015625 17.75 C4.58015625 25.01 4.25015625 32.27 3.91015625 39.75 C-2.08984375 40.75 -2.08984375 40.75 -5.08984375 39.75 C-5.11449224 34.35653012 -5.13267906 28.96309275 -5.14477539 23.56958008 C-5.14981606 21.73331125 -5.15664852 19.89704646 -5.1652832 18.06079102 C-5.17736047 15.42723599 -5.18307456 12.79373384 -5.1875 10.16015625 C-5.19266129 9.33411392 -5.19782257 8.50807159 -5.20314026 7.65699768 C-5.2033358 5.68763632 -5.15188527 3.71838386 -5.08984375 1.75 C-3.55595655 0.2161128 -2.13057554 0.24720766 0 0 Z " fill="#61DCE2" transform="translate(276.08984375,18.25)"/>
<path d="M0 0 C0.74765625 -0.01224609 1.4953125 -0.02449219 2.265625 -0.03710938 C7.7641487 -0.05147834 13.42282531 0.13083735 17.8125 3.8125 C19.3642652 7.28115162 19.34266536 10.44617711 18.875 14.1875 C17.875 16.6875 17.875 16.6875 16.875 18.1875 C17.514375 18.80625 18.15375 19.425 18.8125 20.0625 C21.9976915 23.34421245 22.16000258 25.58919745 22.09375 30.15234375 C21.77420564 33.12524757 20.76089752 34.89748159 18.875 37.1875 C15.62196423 39.26246306 13.05082426 39.42341302 9.234375 39.3828125 C8.16445312 39.37636719 7.09453125 39.36992188 5.9921875 39.36328125 C4.88101563 39.34652344 3.76984375 39.32976563 2.625 39.3125 C1.49835938 39.30347656 0.37171875 39.29445312 -0.7890625 39.28515625 C-3.56792365 39.26160658 -6.3463539 39.2287168 -9.125 39.1875 C-9.14964849 33.79403012 -9.16783531 28.40059275 -9.17993164 23.00708008 C-9.18497231 21.17081125 -9.19180477 19.33454646 -9.20043945 17.49829102 C-9.21251672 14.86473599 -9.21823081 12.23123384 -9.22265625 9.59765625 C-9.22781754 8.77161392 -9.23297882 7.94557159 -9.23829651 7.09449768 C-9.23849205 5.12513632 -9.18704152 3.15588386 -9.125 1.1875 C-7.06163947 -0.87586053 -2.83283934 0.00236859 0 0 Z M-0.125 7.1875 C-0.125 10.1575 -0.125 13.1275 -0.125 16.1875 C1.7621875 16.249375 1.7621875 16.249375 3.6875 16.3125 C4.39519531 16.33570313 5.10289062 16.35890625 5.83203125 16.3828125 C8.18859719 16.32004462 8.18859719 16.32004462 10.875 14.1875 C11.29166667 11.6875 11.29166667 11.6875 10.875 9.1875 C9.08842243 6.97379949 9.08842243 6.97379949 6.7109375 6.9921875 C3.29296875 7.08984375 3.29296875 7.08984375 -0.125 7.1875 Z M-0.125 22.1875 C-0.125 25.8175 -0.125 29.4475 -0.125 33.1875 C4.79627034 33.35432272 8.37843896 33.43578052 12.875 31.1875 C13.12515873 27.77107241 13.12515873 27.77107241 12.875 24.1875 C9.56129 21.97836 8.5303979 21.96268447 4.6875 22.0625 C3.099375 22.10375 1.51125 22.145 -0.125 22.1875 Z " fill="#F29457" transform="translate(127.125,18.8125)"/>
<path d="M0 0 C2.64 0 5.28 0 8 0 C9.54950268 1.54950268 9.21655193 3.09990594 9.31640625 5.25390625 C9.37924805 6.53491211 9.37924805 6.53491211 9.44335938 7.84179688 C9.48267578 8.73962891 9.52199219 9.63746094 9.5625 10.5625 C9.60568359 11.46419922 9.64886719 12.36589844 9.69335938 13.29492188 C9.79978142 15.52978485 9.90179988 17.76476308 10 20 C10.55288696 19.07864258 10.55288696 19.07864258 11.11694336 18.13867188 C12.57871086 15.77130576 13.94882879 13.88956378 16 12 C19.11209905 11.31179598 21.86777159 11.49884345 25 12 C23.2452957 15.83467086 20.83087129 18.77890843 18.14453125 22 C16.828523 23.89101437 16.828523 23.89101437 17.0703125 25.8984375 C18.35406008 28.80035429 20.13786039 31.10633582 22.0625 33.625 C26 38.78734622 26 38.78734622 26 41 C22.83546179 41.58124171 20.14371736 41.76105816 17 41 C14.12875253 38.33161241 12.05238306 35.32604843 10 32 C9.67 34.97 9.34 37.94 9 41 C6.03 41 3.06 41 0 41 C0 27.47 0 13.94 0 0 Z " fill="#F39254" transform="translate(221,17)"/>
<path d="M0 0 C2.73065301 1.73768828 4.20841966 2.92376938 5.75 5.75 C5.75 7.07 5.75 8.39 5.75 9.75 C6.41 9.75 7.07 9.75 7.75 9.75 C7.09 12.06 6.43 14.37 5.75 16.75 C-0.19 16.75 -6.13 16.75 -12.25 16.75 C-11.59 18.07 -10.93 19.39 -10.25 20.75 C-7.38362718 21.83892339 -7.38362718 21.83892339 -4.25 21.75 C-3.569375 21.234375 -2.88875 20.71875 -2.1875 20.1875 C-1.548125 19.713125 -0.90875 19.23875 -0.25 18.75 C2.4375 19.3125 2.4375 19.3125 4.75 20.75 C5.5625 22.875 5.5625 22.875 5.75 24.75 C-0.19485421 29.59974949 -3.62394819 30.40600446 -11.25 29.75 C-15.47467804 28.21375344 -17.94648049 26.6296118 -20.25 22.75 C-21.96569621 17.60291136 -22.16374184 11.81048473 -20.6015625 6.578125 C-18.92086073 3.21672145 -17.16370686 1.69952665 -13.9375 -0.1875 C-8.73168305 -1.68748116 -5.09511712 -1.95966043 0 0 Z M-11.0625 7.125 C-12.4466722 8.68368783 -12.4466722 8.68368783 -12.25 10.75 C-8.95 10.75 -5.65 10.75 -2.25 10.75 C-2.82125354 7.00724788 -2.82125354 7.00724788 -4.25 5.75 C-7.17728993 5.44186422 -8.67560445 5.31425165 -11.0625 7.125 Z " fill="#60DEE3" transform="translate(332.25,29.25)"/>
<path d="M0 0 C3.89412027 2.18855597 5.48883481 3.96092182 6.75 8.375 C7.36175845 14.01247027 7.50286158 18.72449578 5.125 23.9375 C1.2529837 27.91141146 -2.18177187 29.52223202 -7.6875 29.8125 C-12.60532591 29.61346489 -15.35967459 28.40945382 -19.25 25.375 C-22.3906941 20.20805164 -23.03657729 15.27971716 -22.25 9.375 C-20.55835942 4.65621312 -18.38951382 2.16917183 -14.25 -0.625 C-9.15365226 -2.32378258 -4.89495653 -2.17253135 0 0 Z M-11.375 7.0625 C-13.50936584 9.69488454 -14.08957415 11.0060571 -14.25 14.375 C-13.26039159 18.58083575 -12.91192973 19.93371351 -9.25 22.375 C-6.16666667 22.375 -6.16666667 22.375 -3.25 21.375 C-1.22831119 18.98573141 -1.20966918 17.05811496 -0.8125 13.9375 C-0.95592002 10.22659544 -0.95592002 10.22659544 -3.5625 7.4375 C-6.83160575 4.9286514 -8.07721454 4.44367037 -11.375 7.0625 Z " fill="#F69351" transform="translate(175.25,29.625)"/>
<path d="M0 0 C3.88663005 4.25100162 4.885294 8.44177214 5 14.1875 C4.61238882 18.86467494 3.63247606 22.03428688 0 25.125 C-5.05387392 28.59953832 -8.93392458 28.86772044 -15 28.1875 C-19.03786947 26.13185736 -21.55729872 23.96444988 -24 20.1875 C-25.5195155 14.53259422 -25.3923483 9.24212287 -23.01953125 3.87890625 C-21.10276717 0.69898729 -18.66359207 -1.26498868 -15.1484375 -2.421875 C-9.86211709 -3.38302417 -4.58487339 -2.77002767 0 0 Z M-15 6.1875 C-16.72994364 9.64738728 -16.47623913 13.40441733 -16 17.1875 C-14.57955419 19.94359295 -14.57955419 19.94359295 -12 21.1875 C-8.86637282 21.27642339 -8.86637282 21.27642339 -6 20.1875 C-3.91866533 17.065498 -3.7262178 16.25483011 -3.75 12.6875 C-3.74484375 11.9140625 -3.7396875 11.140625 -3.734375 10.34375 C-3.87261938 7.89236156 -3.87261938 7.89236156 -6 5.1875 C-9.67919328 3.92882861 -11.76542478 3.99260967 -15 6.1875 Z " fill="#F49355" transform="translate(211,30.8125)"/>
<path d="M0 0 C-0.61277612 2.96175123 -1.25372522 4.38058783 -3 7 C-3.721875 6.67 -4.44375 6.34 -5.1875 6 C-8.01697427 4.99396471 -10.02895466 4.83022598 -13 5 C-13 5.66 -13 6.32 -13 7 C-11.89591797 7.36351562 -11.89591797 7.36351562 -10.76953125 7.734375 C-0.33732918 11.31742987 -0.33732918 11.31742987 3 15 C3 16.32 3 17.64 3 19 C2.34 19 1.68 19 1 19 C0.896875 19.763125 0.79375 20.52625 0.6875 21.3125 C-0.05594134 24.21867978 -0.65886963 25.19913049 -3 27 C-7.88797724 28.62932575 -13.35579307 29.0698293 -18.2109375 27.10546875 C-20.125 26 -20.125 26 -23 24 C-22.43628586 20.73045798 -21.50037734 19.17424117 -19 17 C-15.125 18.875 -15.125 18.875 -14 20 C-12.00041636 20.04080783 -9.99954746 20.04254356 -8 20 C-7.67 19.01 -7.34 18.02 -7 17 C-7.59167969 16.89042969 -8.18335938 16.78085937 -8.79296875 16.66796875 C-13.37925799 15.74771822 -17.18214516 14.86339113 -21 12 C-22.56935594 8.86128812 -22.35201103 6.46144178 -22 3 C-15.66540877 -4.87543774 -8.37541701 -4.10224507 0 0 Z " fill="#66D9DE" transform="translate(364,31)"/>
<path d="M0 0 C0.66 1.98 1.32 3.96 2 6 C4.97 6.33 7.94 6.66 11 7 C11 8.98 11 10.96 11 13 C6.545 13.495 6.545 13.495 2 14 C2.01160156 14.91523437 2.02320313 15.83046875 2.03515625 16.7734375 C2.04417969 17.96195313 2.05320312 19.15046875 2.0625 20.375 C2.07410156 21.55835937 2.08570313 22.74171875 2.09765625 23.9609375 C2 27 2 27 1 29 C2.093125 28.979375 3.18625 28.95875 4.3125 28.9375 C8 29 8 29 11 30 C10.6875 32.375 10.6875 32.375 10 35 C5.97685134 37.68209911 2.72780081 37.68843415 -2 37 C-5.49890004 34.88608123 -6.70578686 33.88263941 -8 30 C-8.07051114 27.26134713 -8.09357765 24.54972412 -8.0625 21.8125 C-8.05798828 21.06291016 -8.05347656 20.31332031 -8.04882812 19.54101562 C-8.03706354 17.69397617 -8.01912865 15.84697787 -8 14 C-9.32 13.67 -10.64 13.34 -12 13 C-12 11.02 -12 9.04 -12 7 C-10.68 6.67 -9.36 6.34 -8 6 C-8 4.35 -8 2.7 -8 1 C-5.23735711 0.40267181 -2.83967231 0 0 0 Z " fill="#55E3E7" transform="translate(379,22)"/>
<path d="M0 0 C12 0 12 0 15 1 C15 1.99 15 2.98 15 4 C14.28972656 3.98839844 13.57945312 3.97679687 12.84765625 3.96484375 C11.92855469 3.95582031 11.00945312 3.94679688 10.0625 3.9375 C8.68771484 3.92009766 8.68771484 3.92009766 7.28515625 3.90234375 C5.03406673 3.74050951 5.03406673 3.74050951 4 5 C4.99 5 5.98 5 7 5 C7.16276042 7.01822917 7.32552083 9.03645833 7.48828125 11.0546875 C7.87393036 13.39519216 7.87393036 13.39519216 11 15 C9.68 15 8.36 15 7 15 C6.896875 16.0725 6.79375 17.145 6.6875 18.25 C6.02797801 21.84739269 5.54223809 23.45776191 3 26 C2.34 26 1.68 26 1 26 C1.33 26.99 1.66 27.98 2 29 C2.721875 28.95875 3.44375 28.9175 4.1875 28.875 C7 29 7 29 9.1875 29.9375 C13.34896062 31.50960735 17.58740555 31.67441051 22 32 C22 33.32 22 34.64 22 36 C21 37 21 37 18.95874023 37.11352539 C17.64691772 37.10567017 17.64691772 37.10567017 16.30859375 37.09765625 C15.03326782 37.09390991 15.03326782 37.09390991 13.73217773 37.09008789 C12.64493408 37.08098389 11.55769043 37.07187988 10.4375 37.0625 C6.993125 37.041875 3.54875 37.02125 0 37 C0 24.79 0 12.58 0 0 Z " fill="#FC904B" transform="translate(119,21)"/>
<path d="M0 0 C-1 2 -1 2 -3 3 C-2.01 4.65 -1.02 6.3 0 8 C-1.2739589 10.03833424 -2.61061923 12.03852126 -4 14 C-4.66 14 -5.32 14 -6 14 C-5.88613541 16.77170395 -5.75939222 19.54178046 -5.625 22.3125 C-5.5940625 23.09818359 -5.563125 23.88386719 -5.53125 24.69335938 C-5.49257813 25.45068359 -5.45390625 26.20800781 -5.4140625 26.98828125 C-5.3826416 27.68477783 -5.3512207 28.38127441 -5.31884766 29.09887695 C-5.07881747 31.32532739 -5.07881747 31.32532739 -3 34 C-0.57478506 34.58189266 -0.57478506 34.58189266 2.125 34.6875 C3.49011719 34.78611328 3.49011719 34.78611328 4.8828125 34.88671875 C5.93082031 34.94279297 5.93082031 34.94279297 7 35 C7 34.01 7 33.02 7 32 C7.66 32 8.32 32 9 32 C9.33 32.99 9.66 33.98 10 35 C5.97685134 37.68209911 2.72780081 37.68843415 -2 37 C-5.49890004 34.88608123 -6.70578686 33.88263941 -8 30 C-8.07051114 27.26134713 -8.09357765 24.54972412 -8.0625 21.8125 C-8.05798828 21.06291016 -8.05347656 20.31332031 -8.04882812 19.54101562 C-8.03706354 17.69397617 -8.01912865 15.84697787 -8 14 C-9.32 13.67 -10.64 13.34 -12 13 C-12 11.02 -12 9.04 -12 7 C-10.68 6.67 -9.36 6.34 -8 6 C-8 4.35 -8 2.7 -8 1 C-5.23735711 0.40267181 -2.83967231 0 0 0 Z " fill="#60E1E7" transform="translate(379,22)"/>
<path d="M0 0 C6.87612056 0.59276901 12.84740372 2.0455805 18 7 C18 8.32 18 9.64 18 11 C15.36 11.66 12.72 12.32 10 13 C10.33 11.02 10.66 9.04 11 7 C10.13375 7.37125 9.2675 7.7425 8.375 8.125 C4.39459839 9.15695597 2.63465586 8.85959137 -1 7 C-1.875 4.875 -1.875 4.875 -2 3 C-1.34 3 -0.68 3 0 3 C0 2.01 0 1.02 0 0 Z " fill="#5DDEE2" transform="translate(349,39)"/>
<path d="M0 0 C5.61 0 11.22 0 17 0 C17 2.31 17 4.62 17 7 C11.39 7 5.78 7 0 7 C0 4.69 0 2.38 0 0 Z " fill="#5975E8" transform="translate(248,36)"/>
<path d="M0 0 C1.98 0 3.96 0 6 0 C6 5.61 6 11.22 6 17 C4.02 17.66 2.04 18.32 0 19 C0 12.73 0 6.46 0 0 Z " fill="#FD8F4B" transform="translate(223,19)"/>
<path d="M0 0 C0.96661363 3.12180401 0.98988909 5.52083795 0.5625 8.75 C0.46066406 9.54921875 0.35882813 10.3484375 0.25390625 11.171875 C0.17011719 11.77515625 0.08632813 12.3784375 0 13 C2.64 12.67 5.28 12.34 8 12 C8.99 13.65 9.98 15.3 11 17 C9.02 16.67 7.04 16.34 5 16 C5 17.32 5 18.64 5 20 C8.06533164 21.53266582 11.26754272 21.10276471 14.625 21.0625 C15.33140625 21.05798828 16.0378125 21.05347656 16.765625 21.04882812 C18.51045275 21.03703875 20.255237 21.01910324 22 21 C22 20.01 22 19.02 22 18 C22.99 18.33 23.98 18.66 25 19 C21.32513567 22.7973598 19.5481521 24.15366996 14.25 24.25 C9.77169473 24.19830239 6.77610712 23.57880486 3 21 C-0.54723412 17.08581063 -1.13891008 13.67454971 -1.125 8.5 C-1.12757813 7.5409375 -1.13015625 6.581875 -1.1328125 5.59375 C-1 3 -1 3 0 0 Z " fill="#6CD3D6" transform="translate(312,35)"/>
<path d="M0 0 C2.81640164 1.83393595 3.3830696 2.7859422 4.6875 5.75 C-5.87058656 6.1190205 -5.87058656 6.1190205 -10.3125 3.75 C-10.3125 3.09 -10.3125 2.43 -10.3125 1.75 C-11.9625 2.08 -13.6125 2.41 -15.3125 2.75 C-15.3125 2.09 -15.3125 1.43 -15.3125 0.75 C-10.00253406 -1.82452894 -5.54114787 -2.0909992 0 0 Z " fill="#5FDEE2" transform="translate(332.3125,29.25)"/>
<path d="M0 0 C1.13199353 0.9080162 2.25532363 1.82683826 3.375 2.75 C4.00148438 3.26046875 4.62796875 3.7709375 5.2734375 4.296875 C7.08312318 6.08199481 8.00117455 7.67949644 9 10 C7.5903653 10.70180531 6.17192359 11.38593958 4.75 12.0625 C3.96109375 12.44535156 3.1721875 12.82820313 2.359375 13.22265625 C-0.25993522 14.08564091 -1.44855176 13.93045933 -4 13 C-3.01 13 -2.02 13 -1 13 C-1 12.34 -1 11.68 -1 11 C-0.34 10.34 0.32 9.68 1 9 C0.34 8.67 -0.32 8.34 -1 8 C-1.125 2.25 -1.125 2.25 0 0 Z " fill="#75D4F0" transform="translate(47,58)"/>
<path d="M0 0 C3.78699616 3.36621881 6.8272631 7.41641804 9 12 C8.67 12.66 8.34 13.32 8 14 C7.01 13.67 6.02 13.34 5 13 C3.7018576 15.2236068 3.7018576 15.2236068 4 19 C4.66 19 5.32 19 6 19 C7.5625 21.8125 7.5625 21.8125 9 25 C8.67 25.99 8.34 26.98 8 28 C6.29948946 25.38321437 4.61689493 22.75537761 2.9375 20.125 C2.45216797 19.37863281 1.96683594 18.63226563 1.46679688 17.86328125 C1.01240234 17.14785156 0.55800781 16.43242188 0.08984375 15.6953125 C-0.33433838 15.03547363 -0.75852051 14.37563477 -1.19555664 13.69580078 C-1.46102295 13.13618652 -1.72648926 12.57657227 -2 12 C-1.67 11.34 -1.34 10.68 -1 10 C0.32 10.99 1.64 11.98 3 13 C3 11.02 3 9.04 3 7 C2.34 7 1.68 7 1 7 C0.67 4.69 0.34 2.38 0 0 Z " fill="#6BD7D9" transform="translate(283,24)"/>
<path d="M0 0 C4.25965985 3.12375056 4.85005997 6.54391038 5.80078125 11.46484375 C6.01448246 14.18429646 5.65563967 16.36329081 5 19 C4.67 19 4.34 19 4 19 C3.67 15.04 3.34 11.08 3 7 C-0.51716303 10.51716303 -0.54676163 12.19567333 -1 17 C-1.66 17 -2.32 17 -3 17 C-3 14.03 -3 11.06 -3 8 C-2.34 8 -1.68 8 -1 8 C-1 7.34 -1 6.68 -1 6 C-1.66 5.67 -2.32 5.34 -3 5 C-3 4.34 -3 3.68 -3 3 C-2.01 2.67 -1.02 2.34 0 2 C0 1.34 0 0.68 0 0 Z " fill="#EE945D" transform="translate(210,31)"/>
<path d="M0 0 C0.66 0 1.32 0 2 0 C2.04898437 1.19238281 2.09796875 2.38476562 2.1484375 3.61328125 C2.22347604 5.17971068 2.2990234 6.74611579 2.375 8.3125 C2.42140625 9.49102539 2.42140625 9.49102539 2.46875 10.69335938 C2.50742187 11.45068359 2.54609375 12.20800781 2.5859375 12.98828125 C2.6173584 13.68477783 2.6487793 14.38127441 2.68115234 15.09887695 C2.92118253 17.32532739 2.92118253 17.32532739 5 20 C7.42521494 20.58189266 7.42521494 20.58189266 10.125 20.6875 C11.49011719 20.78611328 11.49011719 20.78611328 12.8828125 20.88671875 C13.58148438 20.92410156 14.28015625 20.96148437 15 21 C15 20.01 15 19.02 15 18 C15.66 18 16.32 18 17 18 C17.33 18.99 17.66 19.98 18 21 C13.97685134 23.68209911 10.72780081 23.68843415 6 23 C2.50109996 20.88608123 1.29421314 19.88263941 0 16 C-0.07051114 13.26134713 -0.09357765 10.54972412 -0.0625 7.8125 C-0.05798828 7.06291016 -0.05347656 6.31332031 -0.04882812 5.54101562 C-0.03706354 3.69397617 -0.01912865 1.84697787 0 0 Z " fill="#73D3D6" transform="translate(371,36)"/>
<path d="M0 0 C6.75 -0.125 6.75 -0.125 9 1 C9 2.32 9 3.64 9 5 C9.66 5 10.32 5 11 5 C10.34 6.32 9.68 7.64 9 9 C6.36 8.67 3.72 8.34 1 8 C1.020625 7.05125 1.04125 6.1025 1.0625 5.125 C1.22551826 2.09333717 1.22551826 2.09333717 0 0 Z " fill="#5BE1E4" transform="translate(329,34)"/>
<path d="M0 0 C4.19143668 6.28715502 4.52129086 14.69007753 3.25 22 C2.50165232 25.50654343 1.39190814 28.69716713 0 32 C-1.125 28.25 -1.125 28.25 0 26 C0.09608608 24.16871229 0.12982579 22.33380041 0.125 20.5 C0.12757812 19.5203125 0.13015625 18.540625 0.1328125 17.53125 C0.16940053 15.00568946 0.16940053 15.00568946 -1 13 C-0.87890625 10.9765625 -0.87890625 10.9765625 -0.5625 8.625 C-0.17167187 5.66657948 0 3.01125873 0 0 Z " fill="#EA8037" transform="translate(108,22)"/>
<path d="M0 0 C7.56218722 0.33430401 14.06194818 0.87107467 21 4 C20.64950425 7.24208567 20.43778819 8.61527704 17.9375 10.8125 C17.298125 11.204375 16.65875 11.59625 16 12 C16 11.01 16 10.02 16 9 C15.34 9 14.68 9 14 9 C14 8.34 14 7.68 14 7 C15.32 7.33 16.64 7.66 18 8 C18 6.68 18 5.36 18 4 C13.545 4.495 13.545 4.495 9 5 C9.33 4.34 9.66 3.68 10 3 C6.7 2.34 3.4 1.68 0 1 C0 0.67 0 0.34 0 0 Z " fill="#7CD0EB" transform="translate(34,1)"/>
<path d="M0 0 C1.35436349 4.36755977 0.98118862 8.60196401 0.83984375 13.125 C1.00416568 16.07477911 1.56100826 17.47913856 3 20 C3.44059807 21.31921763 3.83781077 22.65382793 4.1875 24 C4.36667969 24.66 4.54585938 25.32 4.73046875 26 C5.03576811 28.26540976 4.68136613 29.835092 4 32 C3.35165346 30.730447 2.70642185 29.45930294 2.0625 28.1875 C1.70285156 27.47980469 1.34320313 26.77210937 0.97265625 26.04296875 C-0.53352099 22.87939165 -1.12738224 20.33795199 -1.1328125 16.875 C-1.13410156 16.08609375 -1.13539062 15.2971875 -1.13671875 14.484375 C-1.13285156 13.66453125 -1.12898437 12.8446875 -1.125 12 C-1.12886719 11.18015625 -1.13273438 10.3603125 -1.13671875 9.515625 C-1.13542969 8.72671875 -1.13414063 7.9378125 -1.1328125 7.125 C-1.13168457 6.40570312 -1.13055664 5.68640625 -1.12939453 4.9453125 C-1 3 -1 3 0 0 Z " fill="#7ED7F4" transform="translate(3,25)"/>
<path d="M0 0 C4.43564571 3.59076081 6.35773569 9.47652696 7 15 C7.47337278 24.05325444 7.47337278 24.05325444 5 29 C5 23.06 5 17.12 5 11 C4.34 11 3.68 11 3 11 C0.15549386 7.28026121 -0.3227506 4.62609198 0 0 Z " fill="#7E3101" transform="translate(66,17)"/>
<path d="M0 0 C0.33 0.99 0.66 1.98 1 3 C1.99 3 2.98 3 4 3 C2.57646476 6.33136597 0.8664687 8.27664757 -1.875 10.625 C-2.55304688 11.21539062 -3.23109375 11.80578125 -3.9296875 12.4140625 C-5.92478358 13.94238138 -7.64796976 15.11441776 -10 16 C-10.99 15.67 -11.98 15.34 -13 15 C-11.25 13 -11.25 13 -9 11 C-7.68 11 -6.36 11 -5 11 C-4.67 10.01 -4.34 9.02 -4 8 C-3.34 7.67 -2.68 7.34 -2 7 C-1.39938767 5.09821215 -1.39938767 5.09821215 -1 3 C-0.67 2.01 -0.34 1.02 0 0 Z " fill="#F17D29" transform="translate(101,54)"/>
<path d="M0 0 C0 1.98 0 3.96 0 6 C0.66 6 1.32 6 2 6 C2.33 7.65 2.66 9.3 3 11 C0.66666667 11 -1.66666667 11 -4 11 C-4.08096803 9.54257537 -4.13917774 8.08387193 -4.1875 6.625 C-4.22230469 5.81289063 -4.25710937 5.00078125 -4.29296875 4.1640625 C-4.19628906 3.44992188 -4.09960938 2.73578125 -4 2 C-1 0 -1 0 0 0 Z " fill="#FC904B" transform="translate(193,42)"/>
<path d="M0 0 C0.66 0 1.32 0 2 0 C3.95216435 1.95216435 4.84826645 3.53199953 6 6 C6.33 6 6.66 6 7 6 C7 7.65 7 9.3 7 11 C5.02 11.99 5.02 11.99 3 13 C0.33409063 8.44573816 -0.31563182 5.26053037 0 0 Z " fill="#FD914A" transform="translate(140,39)"/>
<path d="M0 0 C-0.66 0.66 -1.32 1.32 -2 2 C-2.33 2.66 -2.66 3.32 -3 4 C-3.99 4.33 -4.98 4.66 -6 5 C-6.33 7.31 -6.66 9.62 -7 12 C-7.99 11.67 -8.98 11.34 -10 11 C-10.33 8.69 -10.66 6.38 -11 4 C-9.73760288 3.13341385 -8.46472499 2.28207941 -7.1875 1.4375 C-6.47980469 0.96183594 -5.77210938 0.48617188 -5.04296875 -0.00390625 C-3 -1 -3 -1 0 0 Z " fill="#5CE1E6" transform="translate(354,30)"/>
<path d="M0 0 C1.125 3.75 1.125 3.75 0 6 C-0.2275015 7.87056791 -0.40962811 9.74685958 -0.5625 11.625 C-0.64628906 12.62789062 -0.73007813 13.63078125 -0.81640625 14.6640625 C-0.87699219 15.43492188 -0.93757812 16.20578125 -1 17 C-0.34 17 0.32 17 1 17 C1.33 17.99 1.66 18.98 2 20 C1.01 20 0.02 20 -1 20 C-3.35947352 15.42852006 -3.60923874 11.03284173 -3 6 C-1.5 2.4375 -1.5 2.4375 0 0 Z " fill="#E29865" transform="translate(156,33)"/>
<path d="M0 0 C0.66 0.33 1.32 0.66 2 1 C0.6451717 6.58866673 -3.61093995 9.65273882 -8 13 C-8.33 13 -8.66 13 -9 13 C-9.125 10.625 -9.125 10.625 -9 8 C-7 6 -7 6 -4.375 5.875 C-3.59125 5.91625 -2.8075 5.9575 -2 6 C-1.34 4.02 -0.68 2.04 0 0 Z " fill="#692C02" transform="translate(66,53)"/>
<path d="M0 0 C2.1875 1.5 2.1875 1.5 3 3.625 C3.061875 4.24375 3.12375 4.8625 3.1875 5.5 C1.8675 5.17 0.5475 4.84 -0.8125 4.5 C-1.1425 5.16 -1.4725 5.82 -1.8125 6.5 C-2.8025 6.5 -3.7925 6.5 -4.8125 6.5 C-4.8125 5.84 -4.8125 5.18 -4.8125 4.5 C-6.1325 4.17 -7.4525 3.84 -8.8125 3.5 C-3.58090982 -0.63660619 -3.58090982 -0.63660619 0 0 Z " fill="#64D9DF" transform="translate(334.8125,48.5)"/>
<path d="M0 0 C0.66 0 1.32 0 2 0 C2 0.99 2 1.98 2 3 C2.66 3.33 3.32 3.66 4 4 C-0.75 8.875 -0.75 8.875 -3 10 C-3.66 7.69 -4.32 5.38 -5 3 C-3.35 2.67 -1.7 2.34 0 2 C0 1.34 0 0.68 0 0 Z " fill="#FC9248" transform="translate(193,31)"/>
<path d="M0 0 C0.556875 0.7425 1.11375 1.485 1.6875 2.25 C3.93027178 4.91707995 6.22074975 6.91556232 9 9 C4.15340923 8.40895235 0.39251833 7.02055843 -4 5 C-3 2 -3 2 0 0 Z " fill="#EA7C2A" transform="translate(61,63)"/>
<path d="M0 0 C0 3 0 3 -1.42578125 6.12890625 C-3.30113511 10.31951178 -3.76366714 14.39976655 -4.1875 18.9375 C-4.26935547 19.71673828 -4.35121094 20.49597656 -4.43554688 21.29882812 C-4.63364171 23.19820797 -4.81823841 25.09898762 -5 27 C-5.33 27 -5.66 27 -6 27 C-6.38386308 10.81377343 -6.38386308 10.81377343 -4 3 C-2 1 -2 1 0 0 Z " fill="#85CBD1" transform="translate(46,16)"/>
<path d="M0 0 C3.86379545 3.00517424 6.90983192 5.45081065 9 10 C8.67 10.66 8.34 11.32 8 12 C6.68 11.34 5.36 10.68 4 10 C4 8.35 4 6.7 4 5 C3.34 5 2.68 5 2 5 C1.67 5.66 1.34 6.32 1 7 C0.34 7 -0.32 7 -1 7 C-0.67 4.69 -0.34 2.38 0 0 Z " fill="#ED7E2C" transform="translate(99,10)"/>
<path d="M0 0 C0 1.32 0 2.64 0 4 C-2.64 4.66 -5.28 5.32 -8 6 C-7.67 4.02 -7.34 2.04 -7 0 C-3.86650268 -1.04449911 -3.01031744 -0.93423645 0 0 Z " fill="#57E4EB" transform="translate(367,46)"/>
<path d="M0 0 C1.4540625 0.0309375 1.4540625 0.0309375 2.9375 0.0625 C2.6075 1.7125 2.2775 3.3625 1.9375 5.0625 C1.2775 5.0625 0.6175 5.0625 -0.0625 5.0625 C-0.0625 5.7225 -0.0625 6.3825 -0.0625 7.0625 C-1.0525 6.7325 -2.0425 6.4025 -3.0625 6.0625 C-3.44468767 4.40635343 -3.77645102 2.73792976 -4.0625 1.0625 C-3.0625 0.0625 -3.0625 0.0625 0 0 Z " fill="#FC9349" transform="translate(177.0625,32.9375)"/>
<path d="M0 0 C1.32 0 2.64 0 4 0 C4.33 1.32 4.66 2.64 5 4 C5.33 4 5.66 4 6 4 C6 5.65 6 7.3 6 9 C4.35 8.67 2.7 8.34 1 8 C0.67 5.36 0.34 2.72 0 0 Z " fill="#FD9048" transform="translate(139,23)"/>
<path d="M0 0 C0.33 0.99 0.66 1.98 1 3 C5.29 3.66 9.58 4.32 14 5 C14 5.33 14 5.66 14 6 C6.37048445 6.34855655 0.07555499 6.0017506 -7 3 C-4.38058783 1.25372522 -2.96175123 0.61277612 0 0 Z " fill="#84D5EE" transform="translate(29,67)"/>
<path d="M0 0 C0.33 1.32 0.66 2.64 1 4 C2.32 4 3.64 4 5 4 C5.33 6.31 5.66 8.62 6 11 C-1.48291572 4.84965831 -1.48291572 4.84965831 -4 1 C-2.68 0.67 -1.36 0.34 0 0 Z " fill="#533615" transform="translate(51,56)"/>
<path d="M0 0 C0.99 0 1.98 0 3 0 C4.58873246 3.17746491 4.41026221 6.54012202 4 10 C2.5 12.5 2.5 12.5 1 14 C1 11.03 1 8.06 1 5 C0.34 4.67 -0.32 4.34 -1 4 C-0.67 2.68 -0.34 1.36 0 0 Z " fill="#EB975F" transform="translate(145,41)"/>
<path d="M0 0 C-0.804375 0.45375 -1.60875 0.9075 -2.4375 1.375 C-5.08856572 2.74725665 -5.08856572 2.74725665 -6 5 C-5.34 5 -4.68 5 -4 5 C-4.33 5.99 -4.66 6.98 -5 8 C-5.598125 7.505 -6.19625 7.01 -6.8125 6.5 C-8.97029994 4.71723582 -8.97029994 4.71723582 -12 5 C-11 2 -11 2 -9.2578125 1.015625 C-8.55398437 0.76296875 -7.85015625 0.5103125 -7.125 0.25 C-6.07699219 -0.14445313 -6.07699219 -0.14445313 -5.0078125 -0.546875 C-3 -1 -3 -1 0 0 Z " fill="#D97D35" transform="translate(67,4)"/>
<path d="M0 0 C0.66 0 1.32 0 2 0 C4.14336161 3.4766338 4.21277626 6.21229195 4.125 10.25 C4.10695313 11.32765625 4.08890625 12.4053125 4.0703125 13.515625 C4.04710938 14.33546875 4.02390625 15.1553125 4 16 C3.34 16.33 2.68 16.66 2 17 C1.34 11.39 0.68 5.78 0 0 Z " fill="#F17A22" transform="translate(71,25)"/>
<path d="M0 0 C1.98 0 3.96 0 6 0 C6.66 1.98 7.32 3.96 8 6 C4 6 4 6 2 5 C2 4.01 2 3.02 2 2 C1.34 2 0.68 2 0 2 C0 1.34 0 0.68 0 0 Z " fill="#54E1E6" transform="translate(354,31)"/>
<path d="M0 0 C0.90105469 0.00902344 1.80210938 0.01804688 2.73046875 0.02734375 C3.41753906 0.03894531 4.10460938 0.05054687 4.8125 0.0625 C2.8125 3.0625 2.8125 3.0625 0.97265625 3.609375 C0.28042969 3.67640625 -0.41179688 3.7434375 -1.125 3.8125 C-1.81464844 3.88984375 -2.50429688 3.9671875 -3.21484375 4.046875 C-5.1875 4.0625 -5.1875 4.0625 -8.1875 3.0625 C-8.1875 2.4025 -8.1875 1.7425 -8.1875 1.0625 C-5.17259443 0.05753148 -3.14568308 -0.04085303 0 0 Z " fill="#7DD9F7" transform="translate(32.1875,1.9375)"/>
<path d="M0 0 C1.32 0 2.64 0 4 0 C4 0.99 4 1.98 4 3 C3.34 3 2.68 3 2 3 C1.67 4.32 1.34 5.64 1 7 C-0.32 7 -1.64 7 -3 7 C-2.25 2.25 -2.25 2.25 0 0 Z " fill="#FB904D" transform="translate(239,29)"/>
<path d="M0 0 C-1 2 -1 2 -3 3 C-3 3.66 -3 4.32 -3 5 C-3.66 5 -4.32 5 -5 5 C-5 5.66 -5 6.32 -5 7 C-5.99 7 -6.98 7 -8 7 C-8 5.02 -8 3.04 -8 1 C-5.23735711 0.40267181 -2.83967231 0 0 0 Z " fill="#6AD6D8" transform="translate(379,22)"/>
<path d="M0 0 C0.66 0 1.32 0 2 0 C1.42655063 2.86724686 1.1385485 3.8614515 -1 6 C-1.66 6.309375 -2.32 6.61875 -3 6.9375 C-5.32131409 7.96786859 -5.32131409 7.96786859 -7 11 C-7.66 10.67 -8.32 10.34 -9 10 C-7.5484451 8.32742645 -6.08855591 6.66208242 -4.625 5 C-3.81289062 4.071875 -3.00078125 3.14375 -2.1640625 2.1875 C-1.44992188 1.465625 -0.73578125 0.74375 0 0 Z " fill="#86D7F3" transform="translate(15,8)"/>
<path d="M0 0 C3.91402949 1.26941497 5.79072873 2.51167694 8 6 C5.69 6 3.38 6 1 6 C0.67 4.02 0.34 2.04 0 0 Z " fill="#6C2D03" transform="translate(56,8)"/>
<path d="M0 0 C0.99 0 1.98 0 3 0 C1.50923566 3.2826932 -0.38620321 5.93077441 -2.625 8.75 C-3.57246094 9.94882812 -3.57246094 9.94882812 -4.5390625 11.171875 C-5.02117187 11.77515625 -5.50328125 12.3784375 -6 13 C-6 8.75354935 -4.18249194 6.61475228 -2 3 C-1.34 3 -0.68 3 0 3 C0 2.01 0 1.02 0 0 Z " fill="#E49668" transform="translate(243,29)"/>
<path d="M0 0 C0.99 0.66 1.98 1.32 3 2 C2.43152344 1.95359375 1.86304688 1.9071875 1.27734375 1.859375 C-4.7741545 1.57650029 -7.99759562 2.59410766 -13 6 C-13 5.01 -13 4.02 -13 3 C-8.46370773 0.3446094 -5.25370771 -0.4956328 0 0 Z " fill="#70D1D2" transform="translate(357,28)"/>
<path d="M0 0 C0.845625 0.495 1.69125 0.99 2.5625 1.5 C1.5725 1.995 1.5725 1.995 0.5625 2.5 C-0.200625 2.17 -0.96375 1.84 -1.75 1.5 C-4.9229466 0.31936871 -6.21492437 0.63540654 -9.4375 1.5 C-11.43647128 1.83944795 -13.43625639 2.17421616 -15.4375 2.5 C-15.4375 1.84 -15.4375 1.18 -15.4375 0.5 C-10.02926212 -2.12217594 -5.54397963 -2.41919111 0 0 Z " fill="#71D1D0" transform="translate(332.4375,29.5)"/>
<path d="M0 0 C4.29 0.33 8.58 0.66 13 1 C13 1.33 13 1.66 13 2 C10.03 2 7.06 2 4 2 C4 4.64 4 7.28 4 10 C3.67 10 3.34 10 3 10 C3 7.36 3 4.72 3 2 C2.01 2 1.02 2 0 2 C0 1.34 0 0.68 0 0 Z " fill="#ED965F" transform="translate(123,24)"/>
<path d="M0 0 C0.28488281 0.57492188 0.56976563 1.14984375 0.86328125 1.7421875 C1.59393297 3.19344762 2.34015051 4.637031 3.10546875 6.0703125 C3.46253906 6.74835937 3.81960937 7.42640625 4.1875 8.125 C4.55230469 8.80820312 4.91710938 9.49140625 5.29296875 10.1953125 C5.52628906 10.79085937 5.75960937 11.38640625 6 12 C5.67 12.66 5.34 13.32 5 14 C4.01 13.67 3.02 13.34 2 13 C2 11.35 2 9.7 2 8 C1.34 8 0.68 8 0 8 C0 5.36 0 2.72 0 0 Z " fill="#81C7D6" transform="translate(41,44)"/>
<path d="M0 0 C0.33 0.99 0.66 1.98 1 3 C1.66 3 2.32 3 3 3 C2.34 4.32 1.68 5.64 1 7 C-1.64 6.67 -4.28 6.34 -7 6 C-6.67 5.34 -6.34 4.68 -6 4 C-2.9375 3.375 -2.9375 3.375 0 3 C0 2.01 0 1.02 0 0 Z " fill="#47E6ED" transform="translate(337,36)"/>
<path d="M0 0 C1.65 0 3.3 0 5 0 C5 0.66 5 1.32 5 2 C5.99 2.33 6.98 2.66 8 3 C6.8553125 3.2165625 6.8553125 3.2165625 5.6875 3.4375 C2.91827092 3.9632594 2.91827092 3.9632594 0 5 C-0.33 4.01 -0.66 3.02 -1 2 C-0.67 1.34 -0.34 0.68 0 0 Z " fill="#5FE1E7" transform="translate(354,53)"/>
<path d="M0 0 C1.65 0 3.3 0 5 0 C5.33 1.98 5.66 3.96 6 6 C4.125 5.8125 4.125 5.8125 2 5 C0.75 2.4375 0.75 2.4375 0 0 Z " fill="#FE8F49" transform="translate(198,29)"/>
<path d="M0 0 C0.66 0 1.32 0 2 0 C1.64950425 3.24208567 1.43778819 4.61527704 -1.0625 6.8125 C-1.701875 7.204375 -2.34125 7.59625 -3 8 C-3 7.01 -3 6.02 -3 5 C-3.66 5 -4.32 5 -5 5 C-5 4.34 -5 3.68 -5 3 C-3.68 3.33 -2.36 3.66 -1 4 C-0.67 2.68 -0.34 1.36 0 0 Z " fill="#79C2D4" transform="translate(53,5)"/>
<path d="M0 0 C-1.26239712 0.86658615 -2.53527501 1.71792059 -3.8125 2.5625 C-4.87404297 3.27599609 -4.87404297 3.27599609 -5.95703125 4.00390625 C-8 5 -8 5 -11 4 C-7.9178096 0.4611888 -4.70112403 -2.35056201 0 0 Z " fill="#E78035" transform="translate(99,65)"/>
<path d="M0 0 C2.93200474 2.85276137 5.64315404 5.65079784 8 9 C7.67 9.66 7.34 10.32 7 11 C6.34 10.67 5.68 10.34 5 10 C5 9.01 5 8.02 5 7 C4.01 7 3.02 7 2 7 C1.34 4.69 0.68 2.38 0 0 Z " fill="#E79565" transform="translate(236,43)"/>
<path d="M0 0 C1.7074998 1.28062485 3.37373596 2.61767557 5 4 C5 4.66 5 5.32 5 6 C3.02 6.99 3.02 6.99 1 8 C0.67 5.36 0.34 2.72 0 0 Z " fill="#72B1BB" transform="translate(51,62)"/>
<path d="M0 0 C1.37432457 3.81756824 0.67975039 7.07255329 0 11 C0.66 11 1.32 11 2 11 C2.33 11.99 2.66 12.98 3 14 C2.01 14 1.02 14 0 14 C-1.17635297 11.64729407 -1.13359359 10.179248 -1.125 7.5625 C-1.12757813 6.78003906 -1.13015625 5.99757813 -1.1328125 5.19140625 C-1 3 -1 3 0 0 Z " fill="#EE9661" transform="translate(155,39)"/>
<path d="M0 0 C1.64666203 0.1135629 3.29236082 0.24117381 4.9375 0.375 C5.85402344 0.44460937 6.77054688 0.51421875 7.71484375 0.5859375 C8.84599609 0.79089844 8.84599609 0.79089844 10 1 C10.33 1.66 10.66 2.32 11 3 C10.01 3 9.02 3 8 3 C7.67 3.66 7.34 4.32 7 5 C6.34 3.68 5.68 2.36 5 1 C3.35 1 1.7 1 0 1 C0 0.67 0 0.34 0 0 Z " fill="#EE945C" transform="translate(198,28)"/>
<path d="M0 0 C0.66 0.33 1.32 0.66 2 1 C0.73058503 4.91402949 -0.51167694 6.79072873 -4 9 C-4 8.01 -4 7.02 -4 6 C-3.34 6 -2.68 6 -2 6 C-1.34 4.02 -0.68 2.04 0 0 Z " fill="#7A3202" transform="translate(66,53)"/>
<path d="M0 0 C2.625 0.9375 2.625 0.9375 5 2 C1.77208445 4.1519437 0.71599191 4.20086443 -3 4 C-2.67 3.01 -2.34 2.02 -2 1 C-1.34 0.67 -0.68 0.34 0 0 Z " fill="#59E1E3" transform="translate(329,53)"/>
<path d="M0 0 C0.99 0.33 1.98 0.66 3 1 C3.6875 3.0625 3.6875 3.0625 4 5 C2.68 5.33 1.36 5.66 0 6 C-0.66 4.35 -1.32 2.7 -2 1 C-1.34 0.67 -0.68 0.34 0 0 Z " fill="#42E8EB" transform="translate(377,23)"/>
<path d="M0 0 C2.475 0.495 2.475 0.495 5 1 C4.54625 1.5775 4.0925 2.155 3.625 2.75 C1.77047097 5.1905049 1.77047097 5.1905049 0 9 C0 6.03 0 3.06 0 0 Z " fill="#EE925D" transform="translate(161,34)"/>
<path d="M0 0 C0.66 0 1.32 0 2 0 C1.67 0.99 1.34 1.98 1 3 C0.67 2.01 0.34 1.02 0 0 Z " fill="#33FFFF" transform="translate(321,47)"/>
<path d="M0 0 C0.99 0.33 1.98 0.66 3 1 C2.01 1.33 1.02 1.66 0 2 C0 1.34 0 0.68 0 0 Z " fill="#00FFFF" transform="translate(351,36)"/>
<path d="" fill="#00FFFF" transform="translate(0,0)"/>
<path d="M0 0 C2 1 2 1 2 1 Z " fill="#00FFFF" transform="translate(358,39)"/>
<path d="" fill="#7FFFFF" transform="translate(0,0)"/>
<path d="" fill="#00FFFF" transform="translate(0,0)"/>
<path d="" fill="#FFFFFF" transform="translate(0,0)"/>
</svg>
